<svg xmlns="http://www.w3.org/2000/svg" viewBox="0 0 64 64">
  <!-- Controller body -->
  <path d="M8 28 C8 20 16 14 24 14 L40 14 C48 14 56 20 56 28 L56 34 C56 42 52 50 44 52 L41 53 C38 54 36 51 36 48 L36 42 C36 39 34 36 32 36 C30 36 28 39 28 42 L28 48 C28 51 26 54 23 53 L20 52 C12 50 8 42 8 34 Z" fill="#e0e0e0" stroke="#888" stroke-width="1.5"/>
  <!-- D-pad vertical -->
  <rect x="17" y="22" width="4" height="14" rx="1.2" fill="#555"/>
  <!-- D-pad horizontal -->
  <rect x="14" y="26" width="10" height="4" rx="1.2" fill="#555"/>
  <!-- Action buttons -->
  <circle cx="46" cy="24" r="3" fill="#e63946"/>
  <circle cx="52" cy="30" r="3" fill="#2a9d8f"/>
  <circle cx="46" cy="36" r="3" fill="#e9c46a"/>
  <circle cx="40" cy="30" r="3" fill="#457b9d"/>
  <!-- Center details -->
  <rect x="28" y="22" width="8" height="3" rx="1.5" fill="#999"/>
  <rect x="29.5" y="27" width="5" height="3" rx="1.5" fill="#999"/>
</svg>
